<svg xmlns="http://www.w3.org/2000/svg" viewBox="0 0 200 200">
  <defs>
    <linearGradient id="skyGradient" x1="0%" y1="0%" x2="100%" y2="100%">
      <stop offset="0%" style="stop-color:#7dd3fc;stop-opacity:1" />
      <stop offset="100%" style="stop-color:#0ea5e9;stop-opacity:1" />
    </linearGradient>
    <linearGradient id="wingGradient" x1="0%" y1="0%" x2="100%" y2="100%">
      <stop offset="0%" style="stop-color:#6366f1;stop-opacity:1" />
      <stop offset="100%" style="stop-color:#4f46e5;stop-opacity:1" />
    </linearGradient>
    <linearGradient id="accentGradient" x1="0%" y1="0%" x2="100%" y2="100%">
      <stop offset="0%" style="stop-color:#f472b6;stop-opacity:1" />
      <stop offset="100%" style="stop-color:#db2777;stop-opacity:1" />
    </linearGradient>
  </defs>

  <!-- Background elements -->
  <circle cx="100" cy="100" r="90" fill="url(#skyGradient)"/>

  <!-- Dynamic swoosh elements -->
  <path d="M20 100 C40 80, 80 70, 120 90 S160 110, 180 90" 
        stroke="#38bdf8" stroke-width="8" fill="none" stroke-linecap="round"/>
  <path d="M25 120 C45 100, 85 90, 125 110 S165 130, 175 110" 
        stroke="#0284c7" stroke-width="6" fill="none" stroke-linecap="round"/>

  <!-- Main package body -->
  <path d="M55 105 L100 135 L145 105 L100 75 Z" fill="#1e40af"/>

  <!-- Wing elements -->
  <path d="M100 75 L145 105 C125 55, 75 55, 55 105 Z" fill="url(#wingGradient)"/>

  <!-- Abstract bird elements -->
  <path d="M80 80 C100 45, 120 45, 140 80" stroke="#f472b6" stroke-width="12" fill="none" stroke-linecap="round"/>
  <path d="M85 70 C100 45, 115 45, 135 70" stroke="#0ea5e9" stroke-width="8" fill="none" stroke-linecap="round"/>

  <!-- Decorative accents -->
  <circle cx="70" cy="90" r="4" fill="#f472b6"/>
  <circle cx="130" cy="90" r="4" fill="#f472b6"/>

  <!-- Speed lines -->
  <path d="M45 85 L65 80" stroke="#38bdf8" stroke-width="3" stroke-linecap="round"/>
  <path d="M135 80 L155 85" stroke="#38bdf8" stroke-width="3" stroke-linecap="round"/>
  <path d="M40 100 L60 95" stroke="#38bdf8" stroke-width="3" stroke-linecap="round"/>
  <path d="M140 95 L160 100" stroke="#38bdf8" stroke-width="3" stroke-linecap="round"/>

  <!-- Additional dynamic elements -->
  <path d="M90 60 C100 50, 100 50, 110 60" stroke="#f472b6" stroke-width="4" fill="none" stroke-linecap="round"/>
</svg>
